<svg width="80" height="80" viewBox="0 0 80 80" fill="none" xmlns="http://www.w3.org/2000/svg">
<path d="M40 80C62.0879 80 80 62.0879 80 40C80 17.9121 62.0879 0 40 0C17.9121 0 0 17.8964 0 40C0 62.0879 17.9121 80 40 80Z" fill="black"/>
<path d="M26.6562 57.8337L32.2292 48.2261L37.8022 38.65L43.3438 29.0424L44.2543 27.5197L44.6625 29.0424L46.3579 35.369L44.4584 38.65L38.8854 48.2261L33.3438 57.8337H40L45.573 48.2261L48.4615 43.2497L49.8273 48.2261L52.4019 57.8337H58.383L55.8085 48.2261L53.2182 38.65L52.5432 36.1853L56.6876 29.0424H50.6436L50.4396 28.336L48.3359 20.4867L48.0691 19.4663H42.2606L42.1193 19.6704L36.6876 29.0424L31.1146 38.65L25.573 48.2261L20 57.8337H26.6562Z" fill="white"/>
</svg>
