<?xml version="1.0" encoding="UTF-8"?>
<svg viewBox="0 0 32 32" xmlns="http://www.w3.org/2000/svg">
<path d="m32 16c0 8.837-7.163 16-16 16s-16-7.163-16-16 7.163-16 16-16 16 7.163 16 16z" fill="var(--color108, #f0b90b)"/>
<path d="m16 4.2 2.92 2.987-7.347 7.347-2.92-2.92 7.347-7.413z" fill="var(--color109, #473800)"/>
<path d="m20.427 8.627 2.92 2.987-11.76 11.76-2.92-2.92 11.76-11.827z" fill="var(--color109, #473800)"/>
<path d="m7.147 13.053 2.92 2.987-2.92 2.92-2.92-2.92 2.92-2.987z" fill="var(--color109, #473800)"/>
<path d="m24.853 13.053 2.92 2.987-11.76 11.76-2.92-2.92 11.76-11.84z" fill="var(--color109, #473800)"/>
</svg>
