<svg width="80" height="81" viewBox="0 0 80 81" fill="none" xmlns="http://www.w3.org/2000/svg">
<circle cx="40" cy="40.8936" r="40" fill="#F5F5F5"/>
<path d="M26.1759 60.8562C27.2033 62.0498 29.0012 63.8326 31.7056 65.268C34.8482 66.9299 37.7491 67.3227 39.411 67.4285C40.3931 67.3832 41.9946 67.2019 43.7925 66.4011C45.5904 65.6003 46.7991 64.5427 47.4941 63.8326C48.2496 63.1528 49.3525 62.1858 50.7123 61.0376C53.7189 58.4691 55.2599 57.1698 57.0277 55.9762C57.9342 55.3567 59.158 54.6013 60.6688 53.8156C61.4696 53.4077 62.2854 53.0451 63.1164 52.7127C64.2345 52.2595 66.1079 51.2774 67.649 49.2831C69.5073 46.8506 69.7793 44.3274 69.8397 43.3907C69.7642 42.1971 69.5376 40.5805 68.8879 38.7826C68.3742 37.3473 67.7548 36.1839 67.1806 35.3076C64.9597 39.2812 60.14 46.6088 51.2411 52.5314C40.9219 59.4058 30.784 60.5994 26.1759 60.8562Z" fill="#0293D6"/>
<path d="M31.9624 17.9921C32.5516 17.3878 33.3071 16.723 34.2891 16.1186C36.8274 14.5474 39.3656 14.3056 40.7254 14.2754C41.3599 14.2301 42.2514 14.2301 43.2938 14.502C44.8198 14.8949 45.8623 15.6654 46.4364 16.1338C47.7811 17.0705 49.5337 18.113 51.7244 18.9893C54.8066 20.2282 57.5715 20.6512 59.5809 20.8023C59.9888 20.8174 60.5781 20.8476 61.2731 20.9685C62.512 21.1951 65.2769 21.6786 67.0597 23.9298C68.4497 25.6824 68.6007 27.7069 68.6158 28.6588C68.5705 29.6408 68.4345 30.7891 68.1626 32.0582C67.8906 33.3273 67.5431 34.4303 67.1805 35.3519C55.4412 29.5653 43.7018 23.7787 31.9624 17.9921H31.9624Z" fill="#EBE638"/>
<path d="M26.1764 60.8667C24.8771 60.7005 23.0187 60.3379 20.9488 59.4465C18.8185 58.5249 16.1292 57.3766 14.5428 54.5816C13.5305 52.7987 13.3341 51.0008 13.3341 49.7921C13.3492 48.6741 13.4399 47.3445 13.742 45.8639C14.1802 43.6429 14.9205 41.8299 15.5853 40.5004C16.1443 39.1708 16.6882 37.6599 17.1717 36.0131C17.8667 33.641 18.2746 31.4654 18.5315 29.5466C18.7128 28.2624 18.9545 27.2199 19.166 26.4796C19.6042 24.8932 20.0121 23.4579 21.0848 21.9772C21.6892 21.1311 22.3237 20.5268 22.7468 20.1642C23.759 19.5145 25.4059 18.6231 27.6268 18.1699C29.3945 17.8072 30.9205 17.8526 31.9781 17.9734C29.5758 21.388 25.3303 28.3833 23.895 38.2945C22.3842 48.659 24.7562 56.9083 26.1764 60.8667V60.8667Z" fill="#BAD147"/>
<path d="M31.9625 17.9642C31.7208 17.9491 40.0759 18.493 45.1977 20.2758C46.7236 20.8046 48.1136 21.4089 49.3827 22.0284C47.7359 21.9226 37.2203 21.4543 29.1826 29.5374C19.1051 39.6752 22.3837 53.8018 22.565 54.5874C21.5829 53.3334 20.1023 51.0671 19.5131 47.8943C19.2411 46.459 19.226 45.1899 19.2864 44.1474C19.3922 41.2767 19.8908 37.4391 21.4319 33.1785C24.2874 25.3372 29.1826 20.3815 31.9625 17.9642Z" fill="#78B650"/>
<path d="M52.148 55.3408C53.5228 52.8781 56.1366 47.3635 55.9553 39.9905C55.7136 30.5778 51.0752 24.1416 49.3982 22.0264C50.35 22.1775 51.7249 22.4796 53.3113 23.0689C56.7863 24.3833 58.9922 26.3172 60.9865 28.1C62.6938 29.626 64.9903 31.9678 67.181 35.3219C66.1687 37.981 64.6579 41.1841 62.3765 44.5382C58.9317 49.6298 55.0639 53.1199 52.148 55.3408Z" fill="#2F8260"/>
<path fill-rule="evenodd" clip-rule="evenodd" d="M49.6402 22.0334C51.1209 22.7586 54.5203 24.6774 57.0434 28.6812C59.8083 33.0778 59.8687 37.3837 59.8083 39.0004C59.4608 48.8058 52.7526 55.0306 52.118 55.5745C47.5748 59.4708 42.4174 60.4612 40.1211 60.9021L40.0916 60.9078C38.0972 61.2855 36.4051 61.3913 35.1813 61.4064C33.7158 61.4971 32.0387 61.5122 30.1955 61.3611C28.8206 61.2553 27.5666 61.074 26.4183 60.8625C25.3154 59.4574 24.0311 57.5084 22.9887 55.0155C21.3418 51.0721 21.0396 47.5065 21.0245 45.2402C21.0699 43.4876 21.4476 34.921 28.3824 28.2733C37.0396 19.9786 48.4315 21.8219 49.6402 22.0334ZM40.4549 55.5357C41.3765 55.5357 47.4048 55.4904 51.605 50.5952C54.9482 46.7123 54.9889 42.2194 55.0041 40.5413L55.0044 40.5027L55.0043 40.4993C54.9884 39.8939 54.7494 30.7958 47.7976 27.0107C44.5795 25.2581 41.3916 25.4394 40.47 25.4999C36.7533 25.7567 34.215 27.4489 33.1423 28.1741C31.8732 29.0504 26.147 33.2204 25.9355 40.5178C25.7693 45.9418 28.7608 49.6434 29.3047 50.2931C33.5351 55.3695 39.5937 55.5206 40.4549 55.5357Z" fill="#085229"/>
</svg>
