<svg width="80" height="81" viewBox="0 0 80 81" fill="none" xmlns="http://www.w3.org/2000/svg">
<circle cx="40" cy="40.8936" r="40" fill="#D9BA24"/>
<path d="M26.1758 60.8758C27.2032 62.0694 29.0011 63.8522 31.7055 65.2875C34.8481 66.9494 37.749 67.3423 39.4109 67.448C40.393 67.4027 41.9945 67.2214 43.7924 66.4206C45.5903 65.6199 46.799 64.5623 47.494 63.8522C48.2494 63.1723 49.3524 62.2053 50.7121 61.0571C53.7187 58.4886 55.2598 57.1893 57.0275 55.9957C57.934 55.3763 59.1578 54.6208 60.6687 53.8352C61.4695 53.4272 62.2853 53.0646 63.1163 52.7322C64.2343 52.279 66.1078 51.2969 67.6489 49.3026C69.5072 46.8701 69.7792 44.347 69.8396 43.4102C69.7641 42.2167 69.5374 40.6 68.8878 38.8021C68.3741 37.3668 67.7546 36.2034 67.1805 35.3271C64.9595 39.3007 60.1399 46.6284 51.2409 52.5509C40.9218 59.4254 30.7839 60.6189 26.1758 60.8758Z" fill="#EDE70A"/>
<path d="M31.9623 17.9726C32.5515 17.3682 33.3069 16.7035 34.289 16.0991C36.8272 14.5278 39.3655 14.2861 40.7253 14.2559C41.3598 14.2105 42.2512 14.2105 43.2937 14.4825C44.8197 14.8753 45.8622 15.6459 46.4363 16.1142C47.781 17.051 49.5336 18.0935 51.7243 18.9697C54.8065 20.2087 57.5713 20.6317 59.5808 20.7828C59.9887 20.7979 60.578 20.8281 61.273 20.949C62.5119 21.1756 65.2767 21.6591 67.0595 23.9103C68.4495 25.6629 68.6006 27.6874 68.6157 28.6392C68.5704 29.6213 68.4344 30.7696 68.1625 32.0387C67.8905 33.3078 67.543 34.4107 67.1804 35.3324C55.441 29.5458 43.7017 23.7592 31.9623 17.9726H31.9623Z" fill="#EBE638"/>
<path d="M26.176 60.8667C24.8767 60.7005 23.0183 60.3379 20.9485 59.4465C18.8182 58.5249 16.1288 57.3766 14.5424 54.5816C13.5302 52.7987 13.3337 51.0008 13.3337 49.7921C13.3488 48.6741 13.4395 47.3445 13.7417 45.8639C14.1798 43.6429 14.9201 41.8299 15.5849 40.5004C16.1439 39.1708 16.6878 37.6599 17.1713 36.0131C17.8663 33.641 18.2743 31.4654 18.5311 29.5466C18.7124 28.2624 18.9541 27.2199 19.1657 26.4796C19.6038 24.8932 20.0117 23.4579 21.0844 21.9772C21.6888 21.1311 22.3234 20.5268 22.7464 20.1642C23.7587 19.5145 25.4055 18.6231 27.6265 18.1699C29.3942 17.8072 30.9201 17.8526 31.9777 17.9734C29.5755 21.388 25.33 28.3833 23.8946 38.2945C22.3838 48.659 24.7558 56.9083 26.176 60.8667V60.8667Z" fill="#EFE812"/>
<path d="M31.9622 17.9642C31.7204 17.9491 40.0755 18.493 45.1973 20.2758C46.7233 20.8046 48.1133 21.4089 49.3824 22.0284C47.7355 21.9226 37.22 21.4543 29.1822 29.5374C19.1048 39.6752 22.3833 53.8018 22.5646 54.5874C21.5826 53.3334 20.1019 51.0671 19.5127 47.8943C19.2407 46.459 19.2256 45.1899 19.2861 44.1474C19.3918 41.2767 19.8904 37.4391 21.4315 33.1785C24.287 25.3372 29.1822 20.3815 31.9622 17.9642Z" fill="#DEC21C"/>
<path d="M52.1476 55.3603C53.5225 52.8976 56.1363 47.383 55.955 40.01C55.7132 30.5974 51.0749 24.1611 49.3978 22.0459C50.3497 22.197 51.7246 22.4992 53.311 23.0884C56.7859 24.4028 58.9918 26.3367 60.9861 28.1196C62.6934 29.6455 64.9899 31.9874 67.1806 35.3415C66.1684 38.0006 64.6575 41.2036 62.3761 44.5577C58.9313 49.6493 55.0635 53.1394 52.1476 55.3603Z" fill="#E5CB22"/>
<path fill-rule="evenodd" clip-rule="evenodd" d="M49.6398 22.0334C51.1205 22.7586 54.5199 24.6774 57.0431 28.6812C59.8079 33.0778 59.8684 37.3837 59.8079 39.0004C59.4604 48.8058 52.7522 55.0306 52.1177 55.5745C47.5744 59.4708 42.4171 60.4612 40.1207 60.9021L40.0912 60.9078C38.0969 61.2855 36.4047 61.3913 35.1809 61.4064C33.7154 61.4971 32.0383 61.5122 30.1951 61.3611C28.8202 61.2553 27.5662 61.074 26.4179 60.8625C25.315 59.4574 24.0308 57.5084 22.9883 55.0155C21.3415 51.0721 21.0393 47.5065 21.0242 45.2402C21.0695 43.4876 21.4472 34.921 28.3821 28.2733C37.0393 19.9786 48.4312 21.8219 49.6398 22.0334ZM40.4546 55.5357C41.3762 55.5357 47.4046 55.4904 51.6048 50.5952C54.948 46.7123 54.9886 42.2194 55.0038 40.5413L55.0042 40.5027L55.0041 40.4993C54.9882 39.8937 54.7491 30.7957 47.7974 27.0107C44.5793 25.2581 41.3913 25.4394 40.4697 25.4999C36.753 25.7567 34.2148 27.4489 33.1421 28.1741C31.8729 29.0504 26.1468 33.2204 25.9353 40.5178C25.7691 45.9418 28.7606 49.6434 29.3045 50.2931C33.5349 55.3695 39.5934 55.5206 40.4546 55.5357Z" fill="#CCA727"/>
</svg>
