<svg width="80" height="81" viewBox="0 0 80 81" fill="none" xmlns="http://www.w3.org/2000/svg">
<path d="M40 0.893555C47.9112 0.893555 55.6448 3.23951 62.2228 7.63477C68.8008 12.03 73.9277 18.2772 76.9552 25.5862C79.9827 32.8953 80.7748 40.9379 79.2314 48.6972C77.688 56.4564 73.8784 63.5837 68.2843 69.1778C62.6902 74.7719 55.5628 78.5815 47.8036 80.1249C40.0444 81.6684 32.0017 80.8762 24.6927 77.8487C17.3836 74.8212 11.1365 69.6943 6.74121 63.1164C2.34596 56.5384 0 48.8048 0 40.8935C0 30.2849 4.21427 20.1107 11.7157 12.6093C19.2172 5.10783 29.3913 0.893555 40 0.893555V0.893555Z" fill="#8F5AE8"/>
<path d="M53.6866 31.6702C53.1656 31.3919 52.584 31.2462 51.9933 31.2462C51.4026 31.2462 50.821 31.3919 50.3 31.6702L42.6666 36.1836L37.3333 39.1469L29.7 43.6636C29.1789 43.9419 28.5973 44.0876 28.0066 44.0876C27.4159 44.0876 26.8343 43.9419 26.3133 43.6636L20.2466 40.1336C19.7476 39.8458 19.3301 39.4356 19.0338 38.9415C18.7375 38.4475 18.5721 37.886 18.5533 37.3102V30.2602C18.5423 29.6782 18.6953 29.1048 18.9947 28.6055C19.2941 28.1063 19.728 27.7013 20.2466 27.4369L26.3133 24.0503C26.8343 23.7719 27.4159 23.6262 28.0066 23.6262C28.5973 23.6262 29.1789 23.7719 29.7 24.0503L35.7666 27.4369C36.2657 27.7246 36.6831 28.1349 36.9794 28.629C37.2757 29.123 37.4411 29.6845 37.46 30.2602V34.7736L42.6666 31.6703V27.2969C42.6801 26.7176 42.5311 26.1462 42.2366 25.6472C41.942 25.1482 41.5136 24.7417 41 24.4736L29.84 17.9836C29.3189 17.7052 28.7373 17.5596 28.1466 17.5596C27.5559 17.5596 26.9743 17.7052 26.4533 17.9836L15.1666 24.4736C14.6032 24.692 14.1229 25.0823 13.7939 25.5891C13.4648 26.0959 13.3036 26.6934 13.3333 27.2969V40.4169C13.3248 40.9967 13.479 41.5673 13.7783 42.064C14.0776 42.5606 14.51 42.9635 15.0266 43.2269L26.3133 49.7303C26.8343 50.0086 27.4159 50.1543 28.0066 50.1543C28.5973 50.1543 29.1789 50.0086 29.7 49.7303L37.3333 45.3569L42.5533 42.2536L50.16 37.8936C50.681 37.6152 51.2626 37.4696 51.8533 37.4696C52.444 37.4696 53.0256 37.6152 53.5466 37.8936L59.6133 41.2803C60.1124 41.568 60.5298 41.9783 60.8261 42.4723C61.1224 42.9664 61.2878 43.5278 61.3066 44.1036V51.0169C61.3176 51.599 61.1646 52.1724 60.8652 52.6716C60.5658 53.1709 60.1319 53.5758 59.6133 53.8402L53.5466 57.3669C53.0256 57.6453 52.444 57.7909 51.8533 57.7909C51.2626 57.7909 50.681 57.6453 50.16 57.3669L44.0933 53.9802C43.5942 53.6925 43.1768 53.2822 42.8805 52.7882C42.5842 52.2941 42.4188 51.7327 42.4 51.1569V46.6269L37.3333 49.5869V54.1002C37.3223 54.6823 37.4753 55.2557 37.7747 55.755C38.0741 56.2542 38.508 56.6592 39.0266 56.9236L50.3133 63.4136C50.8343 63.692 51.4159 63.8376 52.0066 63.8376C52.5973 63.8376 53.1789 63.692 53.7 63.4136L64.9866 56.9236C65.4827 56.6345 65.8972 56.224 66.1911 55.7307C66.485 55.2374 66.6486 54.6775 66.6666 54.1036V40.9802C66.6776 40.3982 66.5246 39.8248 66.2252 39.3255C65.9258 38.8263 65.4919 38.4213 64.9733 38.1569L53.6866 31.6702Z" fill="white"/>
</svg>
