<svg width="80" height="81" viewBox="0 0 80 81" fill="none" xmlns="http://www.w3.org/2000/svg">
<path d="M40 80.8936C62.0914 80.8936 80 62.9849 80 40.8936C80 18.8022 62.0914 0.893555 40 0.893555C17.9086 0.893555 0 18.8022 0 40.8936C0 62.9849 17.9086 80.8936 40 80.8936Z" fill="black"/>
<path d="M20.6835 43.4696C20.574 42.6507 20.519 41.8254 20.5187 40.9992C20.5279 34.2924 24.1491 28.0912 30.0387 24.7C32.9424 23.0328 36.2257 22.1394 39.5739 22.1053C42.9221 22.0713 46.2229 22.8978 49.1599 24.5056L53.5599 22.3008C46.4043 17.1968 36.9403 16.4688 29.0635 20.4156C21.1867 24.3624 16.2307 32.3172 16.2315 41.006C16.2315 41.5943 16.2543 42.181 16.2999 42.766C16.4299 44.4568 15.5139 46.0588 13.9763 46.8288L11.9563 47.8408V52.5608L67.5407 24.7272V20.0072L20.6835 43.4696Z" fill="white"/>
<path d="M67.5407 29.2266L23.6631 51.1866L11.9563 57.0534V61.7734L58.8255 38.2978C58.9348 39.1223 58.9898 39.9532 58.9903 40.785C58.9859 47.5018 55.3603 53.713 49.4631 57.105C46.5553 58.7739 43.2671 59.6666 39.9145 59.6975C36.562 59.7283 33.2579 58.8961 30.3199 57.281L30.0847 57.4034L25.9315 59.4834C33.0855 64.589 42.5479 65.3194 50.4247 61.3738C58.3015 57.4282 63.2619 49.4746 63.2647 40.7846C63.2647 40.1906 63.2415 39.5962 63.1967 39.0094C63.0667 37.3186 63.9815 35.7166 65.5167 34.9454L67.5407 33.9334V29.2266Z" fill="white"/>
</svg>
