<svg width="80" height="81" viewBox="0 0 80 81" fill="none" xmlns="http://www.w3.org/2000/svg">
<path d="M40 80.8936C62.0914 80.8936 80 62.9849 80 40.8936C80 18.8022 62.0914 0.893555 40 0.893555C17.9086 0.893555 0 18.8022 0 40.8936C0 62.9849 17.9086 80.8936 40 80.8936Z" fill="#FF007A"/>
<path d="M31.7126 22.5683C31.1751 22.487 31.1501 22.462 31.4063 22.437C32.2183 22.3902 33.0327 22.4596 33.8251 22.6433C35.7001 23.0808 37.3501 24.212 39.1313 26.1995L39.5938 26.737L40.2626 26.637C43.0494 26.1578 45.9157 26.5145 48.5001 27.662C49.1587 27.9607 49.7866 28.3229 50.3751 28.7433C50.4709 28.9747 50.532 29.219 50.5563 29.4683C50.7749 30.4091 50.676 31.3958 50.2751 32.2745C50.1834 32.3895 50.1269 32.5286 50.1125 32.675C50.0981 32.8214 50.1263 32.9688 50.1938 33.0995C50.2575 33.2296 50.3561 33.3394 50.4786 33.4166C50.6012 33.4939 50.7427 33.5356 50.8876 33.537C51.5126 33.537 52.1376 32.5558 52.4626 31.1933L52.5876 30.6495L52.8188 30.912C54.0975 32.2941 54.9635 34.0067 55.3188 35.8558L55.3688 36.237L55.1188 35.8933C54.8014 35.371 54.375 34.9233 53.8688 34.5808C52.9938 33.9558 52.0688 33.8058 49.6251 33.6745C48.0285 33.6548 46.4424 33.4129 44.9126 32.9558C42.8001 32.262 41.7188 31.362 39.2188 28.037C38.4671 26.9932 37.6309 26.0128 36.7188 25.1058C35.374 23.7331 33.6147 22.8414 31.7126 22.5683Z" fill="white"/>
<path d="M50.9001 25.8375C50.8974 25.0757 51.055 24.3219 51.3626 23.625C51.4163 23.468 51.4944 23.3203 51.5938 23.1875C51.5938 23.1875 51.5938 23.3625 51.4876 23.5688C51.2771 24.3067 51.2428 25.0839 51.3876 25.8375C51.5688 26.9938 51.6438 27.15 52.8813 28.4125C53.4438 29.0062 54.1313 29.75 54.3751 30.0625L54.8126 30.625L54.3751 30.2125C53.7336 29.6168 53.0437 29.0753 52.3126 28.5938C52.1313 28.4875 52.1063 28.4875 51.9813 28.5938C51.8563 28.7 51.8751 28.875 51.8751 29.6438C51.9054 30.5523 51.7099 31.4542 51.3063 32.2688C51.1001 32.6563 51.0751 32.575 51.2563 32.1375C51.4252 31.6242 51.4785 31.08 51.4126 30.5437C51.4126 28.3 51.1563 27.7625 49.5813 26.8625C49.2001 26.625 48.5251 26.2937 48.1438 26.1125C47.9044 26.0155 47.6707 25.9049 47.4438 25.7813C48.1848 25.9124 48.9097 26.1219 49.6063 26.4063C50.5126 26.7625 50.6626 26.7875 50.7688 26.7625C50.8751 26.7375 50.8688 26.4813 50.9001 25.8375Z" fill="white"/>
<path d="M32.7688 29.675C31.6421 28.054 31.0739 26.1102 31.1501 24.1375L31.2001 23.5938L31.4563 23.65C32.0349 23.7734 32.5912 23.9842 33.1063 24.275C34.1313 24.9 34.6001 25.7375 35.0376 27.85C35.1626 28.475 35.3438 29.1875 35.4188 29.425C35.6903 30.0871 36.0363 30.7162 36.4501 31.3C36.7376 31.7125 36.5563 31.925 35.9126 31.8688C34.9313 31.7313 33.6188 30.8312 32.7688 29.675Z" fill="white"/>
<path d="M49.5813 40.8937C44.4875 38.8312 42.7063 37.0562 42.7063 34.0187C42.7063 33.5812 42.7063 33.2188 42.7063 33.2188C42.8595 33.3214 43.0056 33.4341 43.1438 33.5562C44.175 34.3812 45.3375 34.7375 48.5563 35.2063C49.8927 35.3643 51.2124 35.6403 52.5 36.0312C55.625 37.0625 57.5438 39.1562 58.0125 42.0312C58.1259 43.1123 58.0711 44.2044 57.85 45.2687C57.6772 45.9339 57.3986 46.5669 57.025 47.1437C57.025 47.1437 56.95 47.0125 56.95 46.8062C56.9072 46.2468 56.753 45.7015 56.4964 45.2024C56.2399 44.7033 55.8863 44.2605 55.4563 43.9C54.375 42.9312 52.9813 42.2375 49.5813 40.8937Z" fill="white"/>
<path d="M45.9812 41.7248C45.9269 41.3571 45.839 40.9952 45.7187 40.6436L45.625 40.2686L45.8562 40.5498C46.2218 40.992 46.5016 41.4986 46.6812 42.0436C46.8512 42.5046 46.9133 42.9985 46.8625 43.4873C46.901 43.9574 46.8392 44.4304 46.6812 44.8748C46.4525 45.5244 46.0833 46.1155 45.6 46.6061C44.5476 47.6011 43.1823 48.1998 41.7375 48.2998C41.425 48.2998 40.55 48.4061 39.7812 48.4561C38.2953 48.483 36.8214 48.7272 35.4062 49.1811C35.2562 49.2311 35.1 49.2811 35.075 49.2561C35.4815 48.9056 35.9361 48.6152 36.425 48.3936C37.657 47.8682 38.9575 47.5209 40.2875 47.3623C41.0621 47.2631 41.8286 47.1085 42.5812 46.8998C45.1312 46.1248 46.3937 44.1436 45.9812 41.7248Z" fill="white"/>
<path d="M48.3249 45.8938C47.6722 44.6058 47.5057 43.1257 47.8562 41.725C47.9124 41.5938 47.9624 41.4688 48.0124 41.4688C48.1426 41.5054 48.2652 41.5647 48.3749 41.6437C48.6812 41.85 49.3249 42.2125 50.9749 43.1125C53.0624 44.2438 54.2437 45.125 55.0687 46.125C55.7973 47.0242 56.2682 48.1042 56.4312 49.25C56.5457 50.2712 56.5036 51.304 56.3062 52.3125C56.0637 53.3538 55.6044 54.3323 54.9582 55.1842C54.3121 56.036 53.4936 56.7421 52.5562 57.2563C52.3851 57.3577 52.2052 57.4434 52.0187 57.5125C52.0662 57.3142 52.1442 57.1244 52.2499 56.95C52.562 56.331 52.745 55.655 52.788 54.9632C52.831 54.2713 52.733 53.5779 52.4999 52.925C51.9777 51.6046 51.2843 50.3585 50.4374 49.2188C49.6435 48.1701 48.937 47.058 48.3249 45.8938Z" fill="white"/>
<path d="M29.1376 53.7499C30.9728 52.1833 33.1817 51.1176 35.5501 50.6561C36.6577 50.5077 37.7826 50.5521 38.8751 50.7874C40.1649 51.088 41.3109 51.8256 42.1188 52.8749C42.7926 53.9276 43.1982 55.1293 43.3001 56.3749C43.4063 57.0686 43.5314 57.7936 43.5564 57.9436C43.6868 58.7345 44.0891 59.4551 44.6939 59.9811C45.4876 60.5749 46.8814 60.6061 48.2439 60.0811C48.3837 60.0208 48.5307 59.9787 48.6813 59.9561C48.3566 60.2639 47.9827 60.5153 47.5751 60.6999C47.0012 61.0127 46.3532 61.1639 45.7001 61.1374C44.4501 61.1374 43.4126 60.5124 42.5751 59.2061C42.2521 58.6602 41.968 58.0921 41.7251 57.5061C40.8251 55.4249 40.3626 54.8061 39.3063 54.1124C38.868 53.817 38.3628 53.636 37.8366 53.5858C37.3105 53.5356 36.7801 53.6178 36.2938 53.8249C36.0233 53.9507 35.7854 54.1372 35.5984 54.3697C35.4115 54.6023 35.2807 54.8748 35.216 55.1661C35.1513 55.4574 35.1546 55.7597 35.2256 56.0495C35.2965 56.3393 35.4332 56.6089 35.6251 56.8374C36.0201 57.245 36.5344 57.5164 37.0938 57.6124C37.3168 57.6418 37.5434 57.6232 37.7586 57.5578C37.9737 57.4923 38.1723 57.3815 38.3411 57.2329C38.5098 57.0843 38.6448 56.9013 38.7369 56.6961C38.829 56.491 38.8761 56.2685 38.8751 56.0436C38.8893 55.7711 38.8139 55.5013 38.6605 55.2756C38.507 55.0499 38.2838 54.8806 38.0251 54.7936C37.2001 54.4311 36.3001 54.8436 36.3251 55.6436C36.3203 55.7965 36.3652 55.9467 36.4532 56.0718C36.5411 56.1969 36.6672 56.2901 36.8126 56.3374C37.0188 56.4374 37.0188 56.4374 36.8626 56.4124C36.6921 56.3648 36.5382 56.2709 36.4179 56.141C36.2977 56.0112 36.2158 55.8505 36.1815 55.6768C36.1472 55.5032 36.1617 55.3235 36.2234 55.1576C36.2852 54.9917 36.3918 54.8463 36.5313 54.7374C37.2501 54.0186 38.7688 54.3249 39.2813 55.3624C39.4949 55.9231 39.5147 56.5391 39.3376 57.1124C39.1098 57.6691 38.6823 58.1206 38.1389 58.3785C37.5955 58.6363 36.9754 58.6818 36.4001 58.5061C35.5501 58.2749 35.1876 58.0436 34.1626 56.9874C32.3563 55.1124 31.6626 54.7686 29.0876 54.3874L28.6001 54.3061L29.1376 53.7499Z" fill="white"/>
<path fill-rule="evenodd" clip-rule="evenodd" d="M15.625 12.3187C21.625 19.6062 30.8687 30.9374 31.3312 31.5562C31.7187 32.0687 31.5625 32.5562 30.9187 32.9187C30.4629 33.1504 29.966 33.2906 29.4562 33.3312C28.9861 33.3131 28.5399 33.1191 28.2062 32.7874C27.975 32.5562 26.9562 31.0874 24.7 27.5624C22.975 24.8562 21.5125 22.6187 21.4875 22.5624C21.4625 22.5062 21.3812 22.5124 24.525 28.1249C26.5062 31.6499 27.15 32.9124 27.15 33.0687C27.15 33.3999 27.0437 33.5812 26.6312 34.0437C25.9375 34.8187 25.6312 35.6937 25.3812 37.5187C25.125 39.5562 24.425 40.9999 22.4437 43.4437C21.8042 44.1326 21.2598 44.904 20.825 45.7374C20.4831 46.3688 20.3048 47.0757 20.3062 47.7937C20.2514 48.6411 20.3661 49.491 20.6437 50.2937C20.9174 51.1799 21.3332 52.0158 21.875 52.7687C22.3007 53.333 22.6243 53.9676 22.8312 54.6437C22.8312 54.8499 22.8812 54.8499 23.8062 54.6437C26.025 54.1312 27.85 53.2562 28.8562 52.1437C29.1298 51.8999 29.3425 51.5954 29.477 51.2545C29.6116 50.9137 29.6644 50.5461 29.6312 50.1812C29.6647 49.8111 29.6023 49.4388 29.45 49.0999C29.1875 48.5374 28.7 48.0749 27.6437 47.3499C26.25 46.4374 25.6625 45.6624 25.5062 44.6437C25.3812 43.7687 25.5062 43.1811 26.3062 41.5561C26.995 40.3065 27.3823 38.9132 27.4375 37.4874C27.5187 36.4062 27.6437 35.9687 27.9562 35.6124C28.14 35.4232 28.3609 35.2739 28.605 35.1739C28.8491 35.0739 29.1112 35.0253 29.375 35.0312C30.4231 34.9671 31.4207 34.5584 32.2125 33.8687C32.4866 33.6392 32.707 33.3523 32.8582 33.0283C33.0094 32.7044 33.0876 32.3512 33.0875 31.9937V31.3999L32.75 31.0374C31.5625 29.6437 14.7937 11.2124 14.7187 11.2124C14.6437 11.2124 15.1062 11.6999 15.625 12.3187ZM23.5 48.9312C23.635 48.6972 23.6752 48.4204 23.6125 48.1577C23.5497 47.895 23.3887 47.6663 23.1625 47.5187C22.725 47.2374 22.0562 47.3624 22.0562 47.7499C22.0574 47.8094 22.0782 47.8669 22.1156 47.9133C22.1529 47.9596 22.2046 47.9923 22.2625 48.0061C22.4937 48.1374 22.5187 48.2624 22.3437 48.5499C22.1687 48.8374 22.1625 49.0874 22.3937 49.2687C22.4848 49.3332 22.5895 49.376 22.6998 49.3937C22.81 49.4115 22.9228 49.4038 23.0296 49.3713C23.1364 49.3387 23.2343 49.2821 23.3159 49.2058C23.3974 49.1295 23.4604 49.0355 23.5 48.9312V48.9312Z" fill="white"/>
<path fill-rule="evenodd" clip-rule="evenodd" d="M33.9312 35.3874C33.5965 35.5142 33.2961 35.7176 33.0541 35.9814C32.8121 36.2451 32.6351 36.5618 32.5374 36.9061C32.4314 37.3728 32.4774 37.8612 32.6687 38.2999C32.9499 38.6624 33.2062 38.7624 33.9187 38.7624C35.3312 38.7624 36.5437 38.1374 36.6687 37.3999C36.6815 37.0083 36.5787 36.6216 36.373 36.2882C36.1674 35.9547 35.8681 35.6892 35.5124 35.5249C35.0119 35.3182 34.4599 35.2702 33.9312 35.3874V35.3874ZM35.5749 36.6749C35.6269 36.6037 35.6618 36.5215 35.6769 36.4347C35.6921 36.3479 35.6871 36.2588 35.6623 36.1743C35.6376 36.0897 35.5937 36.0119 35.5341 35.947C35.4745 35.8821 35.4008 35.8318 35.3187 35.7999C34.6249 35.3624 33.5687 35.7249 33.5687 36.3936C33.5687 36.7311 34.1062 37.0874 34.6249 37.0874C34.9821 37.0739 35.3212 36.9266 35.5749 36.6749V36.6749Z" fill="white"/>
</svg>
