<svg height="32" viewBox="0 0 113 32" width="113" xmlns="http://www.w3.org/2000/svg" xmlns:xlink="http://www.w3.org/1999/xlink"><defs><path id="a" d="m35.0714284 0c5.5228475 0 10 4.4771525 10 10s-4.4771525 10-10 10c-.2424979 0-.4829798-.0086316-.7211552-.0256044l-18.2074162-.6886813 17.049-1.2867143-4.1968684-.0562572c-1.2288159-.9415017-2.2328117-2.1617259-2.9175189-3.5662038l-6.720327-.4479676 6.3461302-.4225915c-.4084839-1.0909999-.6318445-2.2724056-.6318445-3.5059799 0-1.23328585.2232561-2.41442745.6315579-3.50521448l-6.3458436-.42335695 6.7204397-.44819881c.6847822-1.40453958 1.6888851-2.62479876 2.9178235-3.56629226l4.1964511-.0569375-17.049-1.28571429 18.1585924-.68508289c.2541224-.01935047.5109001-.02920282.769979-.02920282zm0 6.25c-2.0710678 0-3.75 1.67893219-3.75 3.75 0 2.0710678 1.6789322 3.75 3.75 3.75s3.75-1.6789322 3.75-3.75c0-2.07106781-1.6789322-3.75-3.75-3.75z"/><filter id="b" height="190%" width="162.2%" x="-31.1%" y="-45%"><feOffset dx="0" dy="0" in="SourceAlpha" result="shadowOffsetOuter1"/><feGaussianBlur in="shadowOffsetOuter1" result="shadowBlurOuter1" stdDeviation="3"/><feColorMatrix in="shadowBlurOuter1" type="matrix" values="0 0 0 0 1   0 0 0 0 0.54359917   0 0 0 0 0.0980392157  0 0 0 1 0"/></filter><filter id="c" height="170%" width="148.4%" x="-24.2%" y="-35%"><feMorphology in="SourceAlpha" operator="erode" radius="1" result="shadowSpreadInner1"/><feGaussianBlur in="shadowSpreadInner1" result="shadowBlurInner1" stdDeviation=".5"/><feOffset dx="0" dy="0" in="shadowBlurInner1" result="shadowOffsetInner1"/><feComposite in="shadowOffsetInner1" in2="SourceAlpha" k2="-1" k3="1" operator="arithmetic" result="shadowInnerInner1"/><feColorMatrix in="shadowInnerInner1" type="matrix" values="0 0 0 0 1   0 0 0 0 0.989929373   0 0 0 0 0.224561738  0 0 0 1 0"/></filter></defs><g fill="none" transform="translate(0 6)"><g fill="#fff"><path d="m90.071429 18.5714286v-17.14285717c0-.39448911.3197966-.71428572.7142857-.71428572h5c.3944891 0 .7142857.31979661.7142857.71428572v17.14285717c0 .3944891-.3197966.7142857-.7142857.7142857h-5c-.3944891 0-.7142857-.3197966-.7142857-.7142857z"/><path d="m7.5.71428571c5.2571429 0 8.042328 1.90666667 8.2142857 6.42857143-.1719577 2.16380953-1.0671958 4.09523806-2.5 4.99999996l3.3129976 6.6259952c.0882104.1764209.0167017.390947-.1597192.4791574-.0495912.0247956-.1042744.0377046-.1597191.0377046h-6.0596199c-.30284487 0-.57277171-.1909773-.67356457-.4765571l-1.97466053-5.5948715h-1.42857143v6.0714286h-5.35714286c-.3944891 0-.71428571-.3197966-.71428571-.7142857v-17.14285717c0-.39448911.31979661-.71428572.71428571-.71428572zm0 4.64285715h-1.42857143v3.57142857h1.42857143c1.05263158 0 1.42857143-.20263425 1.42857143-1.78571429 0-1.48176292-.32581454-1.78571428-1.42857143-1.78571428z"/><path d="m81.4999997.71428571c4.6877103 0 6.907939 2.03047619 6.7857143 5 .1222247 1.80952381-.790536 3.04761905-2.1428571 3.57142858v.35714285c1.8703745.53047616 2.8571428 1.99142856 2.8571428 3.92857146 0 3.56-2.2695672 5.7142857-7.5 5.7142857h-7.5c-.3944891 0-.7142857-.3197966-.7142857-.7142857v-17.14285717c0-.39448911.3197966-.71428572.7142857-.71428572zm.3571429 11.42857139h-2.5v2.5h2.5c.8757338 0 1.0714285-.225 1.0714285-1.0714285 0-1.1035715-.1956947-1.4285715-1.0714285-1.4285715zm-.3571429-6.42857139h-2.1428571v2.14285715h2.1428571c.8780881 0 1.0714286-.25345622 1.0714286-1.07142857s-.2416756-1.07142858-1.0714286-1.07142858z"/><path d="m65.8786696 14.1104762h5.6042501c.3944891 0 .7142857.3197966.7142857.7142857 0 .0056261-.0000664.0112519-.0001993.0168764l-.088547 3.7466667c-.0091653.3878055-.3261725.6974093-.7140864.6974093h-10.965801c-.3944891 0-.7142857-.3197966-.7142857-.7142857v-17.14285717c0-.39448911.3197966-.71428572.7142857-.71428572h4.7358121c.3944892 0 .7142858.31979661.7142858.71428572z"/><path d="m52.3072406 14.1104762h5.6042501c.3944891 0 .7142857.3197966.7142857.7142857 0 .0056261-.0000664.0112519-.0001993.0168764l-.088547 3.7466667c-.0091653.3878055-.3261725.6974093-.7140864.6974093h-10.965801c-.3944891 0-.7142857-.3197966-.7142857-.7142857v-17.14285717c0-.39448911.3197966-.71428572.7142857-.71428572h4.7358121c.3944892 0 .7142858.31979661.7142858.71428572z"/><path d="m111.483042 5.91428571h-3.49078v12.65714289c0 .3944891-.319796.7142857-.714285.7142857h-4.745834c-.394489 0-.714285-.3197966-.714285-.7142857v-12.65714289h-3.5151851c-.3944891 0-.7142858-.3197966-.7142858-.71428571 0-.00558621.0000656-.01117223.0001966-.0167569l.0885008-3.77142857c.0091014-.38785355.3261288-.69752882.7140891-.69752882h13.0033674c.387961 0 .704988.30967527.71409.69752882l.0885 3.77142857c.009255.39438054-.302951.72159145-.697332.73084603-.005584.00013105-.011171.00019658-.016757.00019658z"/></g><use fill="#000" filter="url(#b)" xlink:href="#a"/><use fill="#ffffc1" xlink:href="#a"/><use fill="#000" filter="url(#c)" xlink:href="#a"/></g></svg>