<svg width="80" height="80" viewBox="0 0 80 80" fill="none" xmlns="http://www.w3.org/2000/svg">
<path d="M64.7074 13.6702H15.3457V58.5638H64.7074V13.6702Z" fill="white"/>
<path fill-rule="evenodd" clip-rule="evenodd" d="M80.0001 39.9468C80.0001 62.009 62.1155 79.8936 40.0533 79.8936C17.9912 79.8936 0.106445 62.009 0.106445 39.9468C0.106445 17.8848 17.9912 0 40.0533 0C62.1155 0 80.0001 17.8848 80.0001 39.9468ZM28.7335 55.8436H20.9809C19.3519 55.8436 18.5472 55.8436 18.0566 55.5298C17.5266 55.1862 17.2028 54.617 17.1635 53.9888C17.1341 53.4101 17.5364 52.7033 18.3411 51.2902L37.4831 17.5497C38.2977 16.117 38.7098 15.4006 39.2299 15.1356C39.7893 14.8511 40.4566 14.8511 41.016 15.1356C41.5361 15.4006 41.9483 16.117 42.7627 17.5497L46.6979 24.4191L46.718 24.4541C47.5977 25.9912 48.0438 26.7707 48.2386 27.5888C48.4545 28.4818 48.4545 29.4239 48.2386 30.3169C48.0423 31.1412 47.6008 31.9263 46.7077 33.4866L36.6529 51.2607L36.6269 51.3063C35.7413 52.856 35.2926 53.6415 34.6706 54.234C33.9935 54.8819 33.1789 55.3527 32.2859 55.6181C31.4714 55.8436 30.5588 55.8436 28.7335 55.8436ZM48.3112 55.8436H59.4197C61.0586 55.8436 61.883 55.8436 62.374 55.5202C62.9038 55.1766 63.2373 54.5973 63.2671 53.9697C63.2953 53.4096 62.9017 52.7303 62.1304 51.3993C62.1038 51.354 62.0772 51.3079 62.0501 51.261L56.4857 41.742L56.4224 41.6348C55.6405 40.3126 55.2458 39.6449 54.7389 39.3868C54.1798 39.1022 53.5219 39.1022 52.9628 39.3868C52.4525 39.6518 52.0403 40.3485 51.2258 41.7518L45.6812 51.2708L45.6622 51.3036C44.8506 52.7046 44.445 53.4048 44.4742 53.9793C44.5135 54.6074 44.8373 55.1862 45.3672 55.5298C45.8481 55.8436 46.6724 55.8436 48.3112 55.8436Z" fill="#E84142"/>
</svg>
