<svg width="80" height="81" viewBox="0 0 80 81" fill="none" xmlns="http://www.w3.org/2000/svg">
<path d="M40 80.8936C62.0914 80.8936 80 62.9849 80 40.8936C80 18.8022 62.0914 0.893555 40 0.893555C17.9086 0.893555 0 18.8022 0 40.8936C0 62.9849 17.9086 80.8936 40 80.8936Z" fill="#13B5EC"/>
<path fill-rule="evenodd" clip-rule="evenodd" d="M43 33.1436L52 27.8936V38.3936L43 33.1436ZM52 55.6436L40 62.6436L28 55.6436V43.3936L40 50.3936L52 43.3936V55.6436ZM28 27.8936L37 33.1436L28 38.3936V27.8936ZM41.5 35.6436L50.5 40.8936L41.5 46.1436V35.6436ZM38.5 46.1436L29.5 40.8936L38.5 35.6436V46.1436ZM50.5 25.3936L40 31.3936L29.5 25.3936L40 19.1436L50.5 25.3936ZM25 24.3936V57.1436L40 65.6436L55 57.1436V24.3936L40 15.8936L25 24.3936Z" fill="white"/>
</svg>
