<svg width="80" height="81" viewBox="0 0 80 81" fill="none" xmlns="http://www.w3.org/2000/svg">
<path d="M40 80.8936C62.0914 80.8936 80 62.9849 80 40.8936C80 18.8022 62.0914 0.893555 40 0.893555C17.9086 0.893555 0 18.8022 0 40.8936C0 62.9849 17.9086 80.8936 40 80.8936Z" fill="#E6007A"/>
<path d="M40 22.4135C46.3181 22.4135 51.44 19.4407 51.44 15.7735C51.44 12.1064 46.3181 9.13354 40 9.13354C33.6818 9.13354 28.5599 12.1064 28.5599 15.7735C28.5599 19.4407 33.6818 22.4135 40 22.4135Z" fill="white"/>
<path d="M40 72.6537C46.3181 72.6537 51.44 69.6808 51.44 66.0137C51.44 62.3465 46.3181 59.3737 40 59.3737C33.6818 59.3737 28.5599 62.3465 28.5599 66.0137C28.5599 69.6808 33.6818 72.6537 40 72.6537Z" fill="white"/>
<path d="M23.9583 18.396C20.7443 16.5403 15.578 19.4716 12.4189 24.9431C9.25983 30.4146 9.30432 36.3544 12.5184 38.2101C15.7324 40.0657 20.8988 37.1345 24.0579 31.663C27.217 26.1915 27.1724 20.2517 23.9583 18.396Z" fill="white"/>
<path d="M67.5486 43.6009C64.3728 41.7673 59.2374 44.7165 56.0783 50.188C52.9192 55.6595 52.9328 61.5814 56.1086 63.415C59.2843 65.2486 64.4197 62.2995 67.5788 56.828C70.7378 51.3564 70.7243 45.4345 67.5486 43.6009Z" fill="white"/>
<path d="M24.0375 50.1242C20.8785 44.6526 15.7121 41.7215 12.4981 43.5772C9.28402 45.4328 9.23944 51.3726 12.3985 56.8441C15.5576 62.3157 20.724 65.2469 23.938 63.3912C27.1521 61.5355 27.1966 55.5957 24.0375 50.1242Z" fill="white"/>
<path d="M67.5855 25.0412C64.4265 19.5696 59.2911 16.6205 56.1153 18.4541C52.9395 20.2877 52.926 26.2096 56.0851 31.6811C59.2442 37.1527 64.3795 40.1017 67.5553 38.2681C70.7311 36.4346 70.7446 30.5127 67.5855 25.0412Z" fill="white"/>
</svg>
