<svg width="80" height="81" viewBox="0 0 80 81" fill="none" xmlns="http://www.w3.org/2000/svg">
<g clip-path="url(#clip0_2123_52658)">
<path d="M17.0189 36.8936L16.4035 37.8166C9.32657 48.8936 10.865 63.3551 20.4035 72.5859C25.6343 78.1243 33.0189 80.8936 40.4035 80.8936C40.4035 80.8936 40.4035 80.8936 17.0189 36.8936Z" fill="#00A3FF"/>
<path opacity="0.6" d="M40.4034 50.1244L17.0188 36.5859C40.4034 80.8936 40.4034 80.8936 40.4034 80.8936C40.4034 71.3552 40.4034 60.2782 40.4034 50.1244Z" fill="#00A3FF"/>
<path opacity="0.6" d="M63.7882 36.8936L64.4036 37.8166C71.4805 48.8936 69.942 63.3551 60.4036 72.5859C54.8651 78.1243 47.7882 80.8936 40.4036 80.8936C40.4036 80.8936 40.4036 80.8936 63.7882 36.8936Z" fill="#00A3FF"/>
<path opacity="0.2" d="M40.4036 50.1244L63.7882 36.5859C40.4036 80.8936 40.4036 80.8936 40.4036 80.8936C40.4036 71.3552 40.4036 60.2782 40.4036 50.1244Z" fill="#00A3FF"/>
<path opacity="0.2" d="M40.4036 20.2781V43.355L60.7113 31.9704L40.4036 20.2781Z" fill="#00A3FF"/>
<path opacity="0.6" d="M40.4034 20.2781L20.0957 31.9704L40.4034 43.355V20.2781Z" fill="#00A3FF"/>
<path d="M40.4034 0.893555L20.0957 31.9705L40.4034 20.2782V0.893555Z" fill="#00A3FF"/>
<path opacity="0.6" d="M40.4036 20.2782L60.7113 31.9705L40.4036 0.893555V20.2782Z" fill="#00A3FF"/>
</g>
<defs>
<clipPath id="clip0_2123_52658">
<rect width="80" height="80" fill="white" transform="translate(0 0.893555)"/>
</clipPath>
</defs>
</svg>
