<svg width="80" height="81" viewBox="0 0 80 81" fill="none" xmlns="http://www.w3.org/2000/svg">
<path d="M40 80.8936C62.0914 80.8936 80 62.9849 80 40.8936C80 18.8022 62.0914 0.893555 40 0.893555C17.9086 0.893555 0 18.8022 0 40.8936C0 62.9849 17.9086 80.8936 40 80.8936Z" fill="#172852"/>
<path d="M32.2199 18.7696C36.9039 17.0176 42.1759 17.0136 46.9479 18.4536C53.1599 20.3816 58.4039 25.0696 61.1439 30.9536C61.8999 32.6296 62.6239 34.3776 62.6959 36.2416C59.2039 34.2176 55.3759 32.9056 51.5399 31.7096C45.4039 29.4976 38.9799 27.9616 33.1719 24.9216C31.8199 24.1136 30.0959 23.2856 29.7279 21.6016C29.5799 20.1456 31.1199 19.3336 32.2199 18.7696" fill="#FFD83D"/>
<path d="M18.0799 32.9295C19.4359 29.2495 21.6599 25.8335 24.6799 23.3015C25.4479 29.6175 28.1359 35.7215 32.5759 40.3135C37.8999 45.8455 45.4839 49.2415 53.1999 49.1135C56.2639 49.2095 59.2599 48.5015 62.2479 47.9295C59.3079 58.5535 47.6639 65.6055 36.8759 63.9095C30.3639 63.0775 24.3519 59.2215 20.7239 53.7775C16.6319 47.7615 15.5999 39.7735 18.0799 32.9295Z" fill="#FFD83D"/>
<path d="M51.54 31.7095C55.376 32.9055 59.204 34.2175 62.696 36.2415L62.932 36.3655C63.256 38.8015 63.492 41.2855 63.06 43.7255C61.304 42.9815 59.88 41.6735 58.392 40.5175C55.528 38.1335 52.604 35.4055 51.54 31.7095" fill="#FF6F03"/>
</svg>
