<svg width="80" height="81" viewBox="0 0 80 81" fill="none" xmlns="http://www.w3.org/2000/svg">
<ellipse cx="40" cy="40.8935" rx="40" ry="40" fill="#ECB244"/>
<path d="M35.8414 23.2256V16.792H43.8945V23.1504H53.677C53.3377 26.2351 54.4289 29.2081 52.0961 32.0672C47.5075 37.7123 43.2544 43.6562 38.851 49.4883C38.8143 49.5654 38.8143 49.6772 38.7777 49.978H54.1667V58.7444H43.9678V64.991H35.9552V58.8582H25.8334C26.0223 55.6963 25.2318 52.8005 27.6013 49.978C32.3055 44.3348 36.5953 38.3524 41.0354 32.5203C41.1105 32.4065 41.1472 32.2562 41.2609 31.9554H27.1135V23.3008C29.9727 23.2256 32.7952 23.2256 35.8414 23.2256V23.2256Z" fill="white"/>
</svg>
